<svg xmlns="http://www.w3.org/2000/svg" width="111" height="123" fill="none" viewBox="0 0 111 123">
  <path fill="#34C65B" d="M55.276 122.541c-30.274 0-54.308-26.585-54.308-60.14 0-33.038 24.496-60.915 54.076-61.43 30.043-.259 55.233 27.875 55.002 61.688-.462 33.297-24.497 59.882-54.77 59.882Z"/>
  <path fill="#EEF7F0" d="M60.36 48.98v35.877c0 3.872 0 8.518-4.853 8.518-5.316 0-4.16-5.163-4.16-8.518-.231-11.357 0-22.714 0-36.136-5.084 4.388-8.32 7.744-12.017 10.325-1.849 1.548-4.39 1.548-6.24-.517-2.08-2.323-1.155-5.162.462-6.969 6.009-6.969 12.48-13.68 18.72-20.649.462-.516 1.155-1.032 1.848-1.29 4.391-1.29 26.576 22.456 24.959 27.102-1.618 5.162-5.316 4.388-8.32 1.806-3.466-2.323-6.47-5.678-10.4-9.55Z"/>
</svg>
